# xmcd
#
# Track frame offsets:
#	150
#	13972
#	28059
#	43908
#	60143
#	74778
#	91289
#	105050
#	116804
#	133012
#	146222
#	159879
#	170925
#	185842
#
# Disc length: 2695 seconds
#
# Revision: 0
# Processed by: cddbd v1.4PL0 Copyright (c) Steve Scherf et al.
# Submitted via: dBpowerAMP V4.0
#
DISCID=cd0a850e
DTITLE=Tracy Lawrence - The Best Of Tracy Lawrence
DYEAR=1900
DGENRE=Country
TTITLE0=Time Marches On 
TTITLE1=If The World Had A Front Porch
TTITLE2=Texas Tornado
TTITLE3=Stars Over Texas
TTITLE4=Her Old Stompin' Ground
TTITLE5=Sticks And Stones
TTITLE6=While You Sleep
TTITLE7=Renegades, Rebels And Rogues
TTITLE8=I See It Now
TTITLE9=Can't Break It To My Heart
TTITLE10=Alibis
TTITLE11=If The Good Die Young
TTITLE12=Is That A Tear
TTITLE13=Better Man, Better Off
EXTD=
EXTT0=
EXTT1=
EXTT2=
EXTT3=
EXTT4=
EXTT5=
EXTT6=
EXTT7=
EXTT8=
EXTT9=
EXTT10=
EXTT11=
EXTT12=
EXTT13=
PLAYORDER=
